<?xml version="1.0" standalone="no"?><!DOCTYPE svg PUBLIC "-//W3C//DTD SVG 1.1//EN" "http://www.w3.org/Graphics/SVG/1.1/DTD/svg11.dtd"><svg class="icon" height="512" viewBox="0 0 1024 1024" version="1.1" xmlns="http://www.w3.org/2000/svg"><path d="M512 6.4C230.4 6.4 6.4 230.4 6.4 512s224 505.6 505.6 505.6 505.6-224 505.6-505.6S793.6 6.4 512 6.4z m0 940.8c-243.2 0-435.2-198.4-435.2-435.2 0-243.2 198.4-435.2 435.2-435.2 243.2 0 435.2 198.4 435.2 435.2 0 243.2-192 435.2-435.2 435.2z m-44.8-288c-19.2 19.2-51.2 25.6-83.2 25.6-25.6 0-51.2-6.4-76.8-19.2-25.6-12.8-38.4-32-51.2-64-6.4-25.6-12.8-57.6-12.8-96 0-25.6 6.4-57.6 12.8-83.2s25.6-51.2 44.8-64c19.2-12.8 51.2-25.6 83.2-25.6s51.2 6.4 70.4 19.2c19.2 12.8 32 38.4 44.8 70.4l57.6-12.8c-6.4-38.4-25.6-64-57.6-89.6-32-19.2-64-32-108.8-32-38.4 0-70.4 6.4-102.4 25.6-32 19.2-57.6 44.8-76.8 76.8-19.2 32-25.6 70.4-25.6 121.6 0 38.4 6.4 83.2 25.6 115.2 12.8 38.4 38.4 64 64 83.2 32 19.2 70.4 25.6 115.2 25.6s83.2-12.8 115.2-38.4c32-25.6 51.2-64 64-108.8L512 576c-6.4 38.4-25.6 64-44.8 83.2z m57.6-160H704v32H524.8v-32z m76.8-70.4h32v172.8h-32V428.8z m128 70.4h179.2v32h-179.2v-32z m76.8-70.4h32v172.8h-32V428.8z" /></svg>